<?xml version="1.0" encoding="UTF-8" standalone="no"?>
<!-- Created with Inkscape (http://www.inkscape.org/) -->

<svg
   xmlns:dc="http://purl.org/dc/elements/1.1/"
   xmlns:cc="http://creativecommons.org/ns#"
   xmlns:rdf="http://www.w3.org/1999/02/22-rdf-syntax-ns#"
   xmlns:svg="http://www.w3.org/2000/svg"
   xmlns="http://www.w3.org/2000/svg"
   xmlns:sodipodi="http://sodipodi.sourceforge.net/DTD/sodipodi-0.dtd"
   xmlns:inkscape="http://www.inkscape.org/namespaces/inkscape"
   width="500"
   height="210"
   id="svg2"
   version="1.1"
   inkscape:version="0.48.4 r9939"
   sodipodi:docname="New document 1">
  <title
     id="title3881">The Adventure of Link</title>
  <defs
     id="defs4" />
  <sodipodi:namedview
     id="base"
     pagecolor="#ffffff"
     bordercolor="#666666"
     borderopacity="1.0"
     inkscape:pageopacity="0.0"
     inkscape:pageshadow="2"
     inkscape:zoom="0.7"
     inkscape:cx="370.2419"
     inkscape:cy="176.835"
     inkscape:document-units="px"
     inkscape:current-layer="layer1"
     showgrid="false"
     inkscape:window-width="1366"
     inkscape:window-height="706"
     inkscape:window-x="-8"
     inkscape:window-y="-8"
     inkscape:window-maximized="1"
     fit-margin-top="0"
     fit-margin-left="0"
     fit-margin-right="0"
     fit-margin-bottom="0" />
  <metadata
     id="metadata7">
    <rdf:RDF>
      <cc:Work
         rdf:about="">
        <dc:format>image/svg+xml</dc:format>
        <dc:type
           rdf:resource="http://purl.org/dc/dcmitype/StillImage" />
        <dc:title>The Adventure of Link</dc:title>
      </cc:Work>
    </rdf:RDF>
  </metadata>
  <g
     inkscape:label="Layer 1"
     inkscape:groupmode="layer"
     id="layer1"
     transform="translate(-107.83379,-480.2732)">
    <path
       style="fill:#0067f0;fill-opacity:1"
       d="m 250.12087,662.82359 c -6.10493,-1.53715 -19.45228,-1.80704 -75.17509,-1.52026 l -6.50315,0.0332 -0.35498,-1.32728 c -0.19524,-0.72999 -0.2119,-1.54422 -0.037,-1.8094 0.17486,-0.26516 1.95822,-1.10565 3.96303,-1.86772 4.13823,-1.57296 6.75377,-4.11095 7.8075,-7.57587 0.7173,-2.35863 0.91461,-59.83298 0.21942,-63.90465 -0.67035,-3.92602 -3.08708,-6.52915 -8.39512,-9.04266 -4.3699,-2.06927 -4.53463,-2.2081 -4.53463,-3.82131 0,-0.92072 0.1698,-1.67806 0.37732,-1.68301 0.20752,-0.006 12.07694,-0.0972 26.37649,-0.20506 28.01292,-0.21126 26.57387,-0.33571 26.57387,2.29815 0,0.67842 -0.59773,1.22993 -1.88659,1.7407 -4.43374,1.75706 -6.70085,2.96435 -7.87543,4.19384 -1.43644,1.50359 -3.08702,5.03748 -3.55634,7.61411 -1.09233,5.99711 -1.63945,49.50395 -0.73742,58.64059 0.64837,6.5673 1.3962,8.48565 3.92174,10.05987 1.73527,1.08163 2.31605,1.14037 10.88867,1.1014 8.1256,-0.0367 9.35286,-0.15729 11.94948,-1.1713 6.07119,-2.37084 10.40765,-7.52343 17.229,-20.47163 1.60728,-3.05091 3.26223,-5.94422 3.67768,-6.42959 0.91442,-1.06833 4.02588,-1.18008 5.37265,-0.19293 1.04857,0.76857 1.25323,-0.93516 -2.73393,22.75954 -0.84008,4.99239 -1.52938,9.68493 -1.5318,10.42784 -0.004,1.26082 -1.15572,2.98964 -1.92694,2.89273 -0.18775,-0.0238 -1.58654,-0.35639 -3.10839,-0.73959 z m 62.0368,-2.05737 c -0.12988,-0.33922 -0.16164,-1.12278 -0.0705,-1.74123 0.13351,-0.90685 1.00635,-1.43615 4.50989,-2.73473 2.38937,-0.88556 5.04999,-2.11384 5.91247,-2.72941 4.8789,-3.48233 6.57974,-9.22444 7.34814,-24.80756 0.1694,-3.43542 0.52023,-9.99048 0.77961,-14.56684 0.25941,-4.57636 0.47383,-12.52786 0.47651,-17.67 0.006,-10.23159 -0.66399,-14.39129 -2.66117,-16.53899 -1.5188,-1.63324 -5.07527,-3.37411 -8.94098,-4.37653 -3.77449,-0.97875 -4.49191,-1.46401 -4.49191,-3.03825 0,-2.85275 -0.50878,-2.75262 14.01461,-2.75825 7.37213,-0.003 16.08994,-0.24139 19.37293,-0.53007 7.09549,-0.62394 6.37654,-1.02387 11.32126,6.29793 1.88668,2.79367 4.15239,6.10057 5.03489,7.34867 0.88252,1.2481 1.99018,2.83659 2.46145,3.52998 2.06664,3.0406 6.73313,9.23073 10.64445,14.1199 4.87969,6.09965 8.22752,10.22721 8.58937,10.58992 0.13836,0.13867 1.6099,1.84062 3.27009,3.78211 1.66021,1.94149 3.43725,3.98383 3.949,4.53854 0.51175,0.55471 2.3111,2.67118 3.99855,4.70328 1.68744,2.03207 3.73061,4.0381 4.54033,4.45781 1.32901,0.68891 1.55179,0.68325 2.2901,-0.0581 1.72444,-1.7316 0.37443,-36.55304 -1.70194,-43.89846 -1.1725,-4.14789 -5.70535,-8.06603 -10.86493,-9.39151 -2.99637,-0.76977 -4.21084,-1.94058 -3.78346,-3.64743 l 0.30773,-1.22894 19.24669,0.18487 19.24669,0.18487 0.15156,1.70318 c 0.14843,1.66786 0.0858,1.72717 -3.01853,2.85937 -4.17639,1.52319 -6.14305,2.91493 -8.42977,5.96545 -3.01081,4.01651 -3.96775,8.13354 -4.82722,20.76787 -0.17924,2.63486 -0.44136,5.47146 -0.5825,6.30352 -0.14113,0.83207 -0.28877,12.85919 -0.32811,26.72695 -0.0394,13.86776 -0.25446,25.49777 -0.47804,25.84446 -0.29596,0.45891 -2.49353,0.63035 -8.08062,0.63035 l -7.67409,0 -1.27372,-1.38678 c -0.70056,-0.76272 -3.64649,-4.56375 -6.54652,-8.44672 -10.39309,-13.91571 -11.83569,-15.78538 -21.01119,-27.23122 -20.96711,-26.1552 -23.60744,-29.37143 -25.03808,-30.49942 -1.80114,-1.42014 -3.08513,-1.29349 -3.73618,0.36856 -0.55466,1.41592 -0.17918,34.87352 0.4194,37.37098 l 0.61479,6.88234 c 1.4521,10.5697 4.11216,14.06745 13.24524,17.41628 3.18149,1.16656 4.12866,2.28869 3.46034,4.09962 l -0.43184,1.17014 -20.4993,0.0252 c -15.71381,0.0192 -20.55444,-0.11886 -20.73543,-0.59163 z m 117.5668,0.3937 c -1.58734,-0.2233 -1.98456,-0.86187 -1.54978,-2.49145 0.26939,-1.00962 1.0879,-1.5907 3.78098,-2.6842 5.36627,-2.17885 7.85735,-5.15936 8.60199,-10.29203 0.20024,-1.38029 0.45329,-2.96343 0.56232,-3.51813 0.10904,-0.55471 0.32985,-11.22027 0.49068,-23.70126 0.30299,-23.51112 -0.0854,-32.68238 -1.53059,-36.13621 -1.05803,-2.52865 -4.52237,-5.41311 -8.11546,-6.75703 -2.94747,-1.10243 -2.99477,-1.15087 -2.99477,-3.06684 l 0,-1.94673 24.90301,0 24.90304,0 0,1.71004 c 0,1.90827 -0.25118,2.11674 -4.32585,3.59024 -3.81799,1.38071 -6.1616,3.8201 -7.1645,7.45731 -1.01071,3.66552 -1.53006,13.02423 -1.36789,24.64934 0.0597,4.279 3.06409,4.88429 8.08798,1.6295 5.66335,-3.66907 17.46524,-14.27812 22.48765,-20.21479 3.78301,-4.47166 5.17325,-7.09192 5.17325,-9.75026 0,-2.28033 -1.28563,-3.61575 -4.52782,-4.70317 -2.37794,-0.79755 -2.79021,-1.12536 -2.93211,-2.33135 -0.0908,-0.77181 0.0522,-1.62106 0.31768,-1.8872 0.28268,-0.28335 4.41721,-0.4359 9.97539,-0.36803 5.22093,0.0637 13.72436,0.0728 18.8965,0.0198 8.7446,-0.0893 9.43939,-0.0296 9.91021,0.85221 1.19249,2.23342 -0.12747,3.53489 -4.72445,4.65826 -4.4035,1.07609 -12.39256,5.22436 -18.3565,9.53151 -4.83446,3.49145 -10.0394,7.53289 -11.07435,8.5988 -0.13836,0.1425 -1.5533,1.35453 -3.14431,2.69341 -2.36027,1.98622 -2.89278,2.7179 -2.89278,3.97474 0,1.68241 1.40801,4.27193 3.7109,6.82479 0.81139,0.89946 1.72332,2.07009 2.02649,2.6014 0.47236,0.82779 2.86297,3.95597 9.2587,12.11523 0.74491,0.95031 2.48633,3.12232 3.86983,4.82674 1.3835,1.70437 3.08143,3.85609 3.77317,4.7816 0.69176,0.92552 1.48432,1.93044 1.76127,2.23322 0.27694,0.30282 2.17016,2.4794 4.20716,4.83692 5.28912,6.12133 11.02314,11.93514 13.65214,13.84209 1.24515,0.90316 4.18824,2.33073 6.5402,3.17239 4.21586,1.50866 4.27627,1.55419 4.27627,3.22604 l 0,1.69574 -3.52165,0.31559 c -1.93689,0.17357 -10.55236,0.34377 -19.1455,0.37822 -15.60961,0.0625 -15.62531,0.0615 -17.20982,-1.11023 -1.56308,-1.15593 -3.22359,-3.20867 -8.67136,-10.71953 -1.52183,-2.09817 -3.72915,-5.03093 -4.90513,-6.51719 -1.17597,-1.48622 -2.13813,-2.90205 -2.13813,-3.14621 0,-0.24418 -0.67916,-1.09616 -1.50928,-1.89333 -0.83011,-0.79718 -1.50927,-1.65853 -1.50927,-1.91417 0,-0.82711 -12.02855,-16.85178 -13.85791,-18.46177 -2.08087,-1.83136 -4.04677,-2.01293 -5.90773,-0.54563 -0.70782,0.5581 -1.45683,1.74946 -1.66447,2.64749 -0.56619,2.44868 -0.30371,21.79296 0.3506,25.83831 0.66506,4.11186 1.04017,4.97564 3.11519,7.17352 1.05786,1.12051 2.7605,2.03532 5.47364,2.94101 l 3.93812,1.31461 0,1.97572 c 0,1.20591 -0.24504,2.00387 -0.62886,2.04794 -1.42105,0.16319 -47.51495,0.16607 -48.67409,0.006 z M 259.84781,660.2924 c -0.59246,-1.54758 0.22005,-2.55508 3.34013,-4.14156 6.30764,-3.20728 7.87759,-5.73943 8.5696,-13.82172 0.24476,-2.85883 0.39828,-17.1115 0.34112,-31.67265 -0.0964,-24.5519 -0.17176,-26.6313 -1.03824,-28.62952 -0.93087,-2.1467 -3.75291,-4.99019 -5.94919,-5.99439 -0.63544,-0.29053 -2.23071,-1.01235 -3.54503,-1.60404 -1.83704,-0.82702 -2.38789,-1.33971 -2.38198,-2.217 0.0185,-2.74564 -0.63334,-2.66567 20.4753,-2.51178 10.73201,0.0783 21.21069,-0.0351 23.28595,-0.25214 5.11818,-0.53499 6.92119,-0.3137 7.30436,0.89644 0.53099,1.67697 -0.22425,2.90588 -2.17171,3.53372 -8.25854,2.6625 -9.97888,6.16427 -10.63637,21.65025 -0.4339,10.21978 -0.25691,46.52057 0.23972,49.16751 1.19836,6.38693 3.0697,8.84945 8.31955,10.94781 2.36679,0.94598 3.35466,1.62959 3.68682,2.55136 1.04397,2.89705 2.07722,2.78191 -24.8578,2.77018 -19.93547,-0.008 -24.77802,-0.13909 -24.98223,-0.67247 z"
       id="path3824"
       inkscape:connector-curvature="0"
       sodipodi:nodetypes="cccsccsssscssssssscssssscccccsccsssssscsssssssssscssscccsssssscscsssssccsscccccsssssssscccssssssssssssssssssssscscsssscsscscssssssssscssccssssssssscssssscss" />
    <path
       style="fill:#464747;fill-opacity:1"
       d="m 477.53712,562.23857 c -1.6987,-1.66736 -1.62301,-1.77935 3.36023,-4.96978 5.89489,-3.77406 11.38372,-10.47588 14.66287,-17.9032 1.94256,-4.40004 2.01112,-4.94848 0.75747,-6.06211 -1.32962,-1.1811 -2.36879,-1.01481 -3.39419,0.54305 -2.52608,3.8379 -10.16549,9.54667 -12.77523,9.54667 -2.44038,0 -5.13738,-3.72604 -5.13738,-7.09742 0,-3.74716 3.59334,-11.36763 7.3457,-15.57808 1.23968,-1.39099 2.25395,-2.7484 2.25395,-3.0165 0,-0.2681 0.65961,-1.18057 1.4658,-2.02767 1.09608,-1.15175 1.90883,-1.54025 3.22222,-1.54025 2.16421,0 2.44225,0.33158 4.10754,4.8986 1.23245,3.37992 1.63381,5.46768 1.76431,9.1763 0.0481,1.36207 0.13663,1.41499 1.90129,1.13386 1.01812,-0.16212 2.056,-0.49599 2.30645,-0.74182 0.25045,-0.24583 0.91697,-2.09506 1.48111,-4.10941 0.56416,-2.01434 1.43465,-5.11307 1.93439,-6.88602 2.13183,-7.56295 5.96881,-15.2179 9.2707,-18.49544 3.46703,-3.44147 8.65444,-4.62069 10.49767,-2.38638 0.52378,0.63494 0.95238,1.33709 0.95238,1.5603 0,0.22321 -1.19363,0.65526 -2.65254,0.96012 -3.10968,0.64978 -4.12247,1.16538 -6.71051,3.41582 -2.1212,1.84461 -6.8048,9.12047 -6.8048,10.57122 0,0.50739 -0.57613,2.31292 -1.28028,4.01229 -0.70416,1.69929 -1.62011,4.52592 -2.03547,6.28131 -1.02015,4.31147 -0.62453,4.69948 3.76615,3.69443 3.73011,-0.85383 4.73834,-0.64765 4.51117,0.92264 -0.19337,1.33652 -2.27239,2.44686 -7.23515,3.86398 l -3.53671,1.00988 -1.18712,2.83344 c -0.65294,1.55841 -1.70541,3.94931 -2.33889,5.3131 -0.63348,1.36382 -1.31218,2.99395 -1.50821,3.62254 -1.19213,3.8224 -9.09437,12.75723 -14.99119,16.95006 -2.48974,1.77033 -2.66187,1.79222 -3.97373,0.50447 z m 4.9726,-24.26065 c 2.81387,-1.40908 7.05465,-5.34527 8.26461,-7.67105 2.02734,-3.89702 1.63375,-10.67258 -0.645,-11.10335 -1.05955,-0.20031 -6.50674,5.02949 -8.48579,8.14712 -2.68441,4.22884 -4.39851,10.13533 -3.26439,11.24854 0.6012,0.59011 2.18816,0.35142 4.13057,-0.62126 z m -195.97895,3.61831 c -0.27718,-0.71557 -0.36649,-2.11037 -0.19846,-3.09955 0.40697,-2.39619 2.62769,-9.09418 4.09474,-12.35029 0.64894,-1.44026 1.17987,-3.08749 1.17987,-3.66051 0,-0.98343 -0.17684,-1.0228 -3.15777,-0.70292 -1.73678,0.18637 -4.01376,0.5594 -5.05994,0.82904 -1.04618,0.26965 -2.65333,0.35188 -3.57146,0.18281 -1.55744,-0.28675 -1.80728,-0.13034 -3.7283,2.33459 -3.11321,3.99467 -5.07845,7.2413 -5.95969,9.84557 -1.03239,3.05092 -3.7095,6.13725 -4.92189,5.67424 -1.19159,-0.45512 -1.12027,-2.29095 0.18793,-4.83869 2.43792,-4.74796 11.34331,-17.00627 17.77827,-24.47187 4.41525,-5.12241 11.6711,-13.27135 12.52133,-14.06246 0.4424,-0.41169 2.11639,-2.25249 3.71999,-4.0907 1.60358,-1.83827 3.14708,-3.20184 3.42994,-3.03023 1.28925,0.78208 -0.22759,10.77955 -3.14866,20.75289 -1.31533,4.49084 -1.29628,4.68276 0.49942,5.03527 0.83365,0.16366 1.51574,0.45824 1.51574,0.65462 0,0.58967 -1.67921,1.89561 -3.13687,2.4396 -1.42355,0.53124 -2.49667,2.30869 -4.67406,7.74187 -2.31098,5.76654 -3.78517,10.53128 -4.11782,13.30939 -0.30382,2.53734 -0.45264,2.80838 -1.54231,2.80838 -0.8367,0 -1.3604,-0.39843 -1.71,-1.30105 z m 3.56158,-23.52988 c 1.91362,-0.57053 3.67608,-1.29835 3.91657,-1.61733 0.52172,-0.69207 2.62686,-6.99733 4.13226,-12.37691 1.85771,-6.63851 0.96002,-6.35251 -6.39635,2.03783 -7.6633,8.74044 -9.73755,11.42417 -9.73755,12.59864 0,0.91925 0.21668,0.98561 2.30285,0.70492 1.26659,-0.1704 3.86858,-0.77663 5.78222,-1.34715 z m 30.75586,23.77731 c -2.16367,-2.12383 -0.35008,-7.98498 6.3209,-20.42794 2.94379,-5.49084 4.14601,-7.29648 4.77485,-7.17127 0.62568,0.12464 0.82669,0.67041 0.78665,2.13583 -0.0392,1.43403 -0.7892,3.18005 -2.76279,6.43179 -1.48996,2.45485 -2.74716,4.68654 -2.79379,4.9593 -0.0467,0.27276 -0.67906,1.76486 -1.40546,3.31574 -1.45574,3.1081 -1.6164,4.1333 -0.73185,4.66988 0.67019,0.40657 1.96288,-1.02646 5.19052,-5.75392 2.25279,-3.29963 3.22365,-5.04695 5.58005,-10.04261 1.42747,-3.02627 2.11586,-3.41012 3.47408,-1.93696 0.76678,0.83163 0.7739,1.07761 0.0784,2.71166 -0.42074,0.9884 -0.76497,2.23074 -0.76497,2.76078 0,1.42493 2.81188,3.53168 4.71227,3.53064 1.36669,0 1.82267,-0.3484 3.08976,-2.35568 0.81757,-1.29511 1.95437,-2.94656 2.52623,-3.66994 0.57187,-0.7233 1.59026,-2.02298 2.26309,-2.88814 1.84564,-2.37323 6.94028,-7.05923 9.04166,-8.31641 3.13462,-1.87531 5.04113,-1.27088 5.392,1.70952 0.22633,1.92253 -2.44358,8.02193 -4.58769,10.48066 -1.95976,2.24735 -9.55177,7.05992 -12.33242,7.8175 -1.44662,0.39412 -1.88855,0.83951 -2.42899,2.44807 -0.36333,1.08148 -0.7044,2.74741 -0.75785,3.70208 -0.0863,1.54145 0.054,1.75291 1.25378,1.88906 1.21374,0.13771 3.49739,-0.7925 6.1722,-2.51418 1.4159,-0.91132 4.24983,-3.97366 10.38498,-11.22188 5.69814,-6.73193 8.00808,-8.98211 9.22058,-8.98211 1.03888,0 1.92281,1.03586 1.92281,2.25327 0,1.49131 -1.68779,6.13739 -3.78234,10.41187 -2.01909,4.12043 -2.12856,4.69587 -0.89118,4.68391 0.51843,-0.006 3.39218,-2.99735 6.94711,-7.23378 7.742,-9.22626 10.68068,-11.59687 11.56657,-9.3308 0.65898,1.68555 0.20708,3.27716 -2.4028,8.46236 -3.77303,7.4962 -5.58961,11.36401 -6.89559,14.68185 -1.14447,2.90758 -1.90374,3.43505 -3.02889,2.10433 -0.73849,-0.8734 -0.0814,-3.71829 1.864,-8.06965 2.32445,-5.19932 1.22247,-4.85947 -5.20665,1.60593 -3.04741,3.06461 -5.72457,5.32683 -6.54225,5.52829 -3.58112,0.88221 -3.84232,-2.26869 -0.75831,-9.1477 1.90014,-4.23832 2.15708,-5.53533 1.09657,-5.53533 -0.21749,0 -2.03459,1.94504 -4.038,4.32233 -5.83562,6.9247 -12.02097,11.54747 -15.45063,11.54747 -0.69336,0 -1.9964,-0.64525 -2.89567,-1.43394 -1.7089,-1.49875 -2.01683,-3.13414 -1.40045,-7.43737 0.23074,-1.61099 0.10827,-1.75936 -2.96782,-3.59551 -1.76469,-1.05335 -3.28873,-1.91519 -3.38675,-1.91519 -0.098,0 -1.6448,2.18319 -3.43727,4.85155 -3.23817,4.82051 -9.01928,11.01826 -10.27753,11.01826 -0.3617,0 -1.14066,-0.47412 -1.73103,-1.05362 z m 34.23534,-18.92002 c 2.36783,-1.81256 4.53478,-4.23077 6.16084,-6.87518 0.97902,-1.59219 1.01442,-1.84011 0.30117,-2.10876 -0.472,-0.17779 -1.5782,0.24381 -2.65883,1.0133 -2.37237,1.68933 -7.35922,7.37573 -7.56972,8.63157 -0.2458,1.46643 1.35423,1.18563 3.76654,-0.66093 z m -42.25601,18.82684 c -1.54105,-0.75411 -2.50932,-2.5591 -2.5191,-4.69598 -0.01,-2.09743 -1.17968,-2.55994 -2.95206,-1.16696 -2.96023,2.32661 -7.1694,4.87018 -9.0876,5.49158 -5.32849,1.72614 -7.725,-1.92395 -4.88059,-7.43361 3.02174,-5.85317 13.51846,-17.61725 18.63318,-20.88291 2.94559,-1.88073 5.92028,-2.51422 6.61616,-1.40899 0.17174,0.27277 0.83925,0.49593 1.48333,0.49593 0.92152,0 1.39969,-0.52156 2.24379,-2.4476 0.59,-1.34616 1.0727,-2.57469 1.0727,-2.73006 0,-0.15532 0.56842,-1.43895 1.26313,-2.8525 0.6947,-1.4135 1.26311,-2.74804 1.26311,-2.96566 0,-0.21763 0.70158,-1.51488 1.55907,-2.88281 1.58454,-2.52771 3.09758,-3.223 3.69397,-1.69747 0.80841,2.06785 -5.70699,16.97424 -11.58337,26.50132 -2.57985,4.18253 -5.37332,10.3035 -5.66009,12.40229 -0.23057,1.68735 -0.13403,1.89744 0.9406,2.04666 1.68753,0.23432 1.87011,2.33375 0.3267,3.75698 -1.01453,0.93556 -1.33406,0.99775 -2.41293,0.46979 z m -9.79318,-6.33017 c 3.7367,-2.38969 10.86713,-9.56665 12.36185,-12.44256 1.08077,-2.07943 1.80874,-6.27843 1.30975,-7.55476 -0.23997,-0.61387 -0.5827,-0.65983 -1.80401,-0.24191 -4.45738,1.52518 -18.74783,18.11224 -18.74783,21.76076 0,1.01639 0.17749,1.09763 1.82474,0.83524 1.0036,-0.15984 3.27858,-1.22043 5.0555,-2.35677 z m 122.56355,6.38592 c -1.41918,-1.39303 0.026,-7.64365 3.87175,-16.74745 1.52441,-3.60855 1.50562,-4.93526 -0.0616,-4.345 -0.38714,0.14584 -1.68917,1.90502 -2.8934,3.90932 -3.80199,6.32799 -7.48384,11.57374 -9.13966,13.02192 -6.03315,5.27645 -9.92217,5.59108 -10.88201,0.88033 -0.38899,-1.90906 -2.03589,-2.15637 -3.52757,-0.52967 -0.52937,0.57727 -1.92639,1.70224 -3.10447,2.49989 -1.74261,1.17992 -2.33026,1.35142 -3.15182,0.9198 -3.01814,-1.58543 -1.3482,-6.70102 6.39677,-19.59518 0.65534,-1.09104 1.92208,-3.3872 2.81497,-5.10257 1.27145,-2.44272 1.84425,-3.08782 2.64208,-2.97558 1.94258,0.2732 1.46768,2.23187 -2.05676,8.48269 -1.87385,3.32344 -3.7865,6.60049 -4.25036,7.28239 -1.35031,1.98512 -2.55442,5.37977 -2.02268,5.70238 0.26296,0.15949 1.04754,-0.0762 1.74351,-0.5238 1.87651,-1.20685 7.92582,-8.41229 10.29035,-12.25694 4.06542,-6.61035 7.12089,-9.29068 8.00703,-7.02401 0.40024,1.02374 -0.48191,2.84381 -2.61926,5.40409 -1.98856,2.38203 -5.78787,9.65748 -7.08396,13.56536 -1.10961,3.3456 -0.54611,4.1448 1.87896,2.66489 3.69622,-2.25569 8.34493,-8.17557 13.0201,-16.58032 1.17513,-2.11262 2.33877,-3.96374 2.58585,-4.11364 0.89395,-0.54231 4.48435,0.81757 5.49792,2.08239 0.57067,0.71213 1.03759,1.91337 1.03759,2.66941 0,1.20749 -2.11381,6.60243 -3.53462,9.02119 -1.05225,1.79135 -2.52782,6.13848 -2.52807,7.44789 -1.9e-4,1.0475 0.24169,1.3638 1.04288,1.3638 1.91037,0 10.10412,-3.57674 11.24183,-4.90733 0.32539,-0.38051 0.86456,-2.00524 1.19815,-3.61052 0.40743,-1.96052 1.36757,-4.04228 2.92476,-6.34146 2.54994,-3.76496 10.68779,-11.63182 13.62747,-13.17369 1.81556,-0.95223 1.88542,-0.95377 2.55848,-0.0568 0.92777,1.23639 0.58743,3.33859 -1.24776,7.70696 -1.61968,3.85535 -3.19621,6.61933 -4.6783,8.20209 -0.49514,0.52876 -0.90027,1.11833 -0.90027,1.31014 0,0.19184 -1.93256,1.95924 -4.29457,3.9276 -2.36203,1.96833 -4.29459,3.77208 -4.29459,4.00834 0,0.93286 3.1793,1.97 6.18853,2.01878 2.84127,0.0462 5.27747,-0.5097 12.63184,-2.88203 1.40683,-0.45379 1.03347,0.5105 -0.95235,2.4597 -2.32764,2.28476 -6.15261,3.44044 -11.55246,3.49052 -4.12428,0.0383 -5.8907,-0.50566 -8.75391,-2.69537 -1.14486,-0.87563 -1.24932,-0.86606 -4.04194,0.36931 -7.44482,3.29337 -12.27857,4.37519 -13.62846,3.05018 z m 24.83364,-14.4068 c 4.24123,-4.21938 6.93646,-9.29871 4.9342,-9.29871 -0.3347,0 -4.20039,3.65051 -7.08969,6.69506 -2.22045,2.33976 -3.12159,5.70321 -1.52799,5.70321 0.31232,0 1.96991,-1.3948 3.68348,-3.09956 z m -240.67432,13.3025 c 0,-0.56193 -0.20821,-0.9567 -0.69768,-1.32264 -0.81172,-0.60699 2.03603,-6.50256 7.12264,-14.74567 2.57974,-4.1806 4.69044,-7.69322 4.69044,-7.8058 0,-0.11263 1.07068,-1.82499 2.3793,-3.80533 3.47344,-5.25633 5.79697,-9.90742 5.22827,-10.46565 -0.30163,-0.29607 -1.33826,-0.23383 -2.80097,0.16814 -1.78554,0.49071 -2.89938,1.28089 -4.82033,3.4196 -1.374,1.52979 -2.50141,3.04178 -2.50535,3.36003 -0.005,0.31818 -0.1868,0.65293 -0.40637,0.74389 -0.21955,0.0909 -1.09792,1.16954 -1.95191,2.39698 -2.66735,3.83379 -7.49178,11.13513 -7.7007,11.65438 -0.10974,0.27276 -1.25805,2.05812 -2.55176,3.96745 -1.29371,1.90933 -3.11492,4.81053 -4.04711,6.4471 -0.93222,1.63658 -2.0194,3.34822 -2.41599,3.80364 -0.66905,0.76834 -0.79094,0.76934 -1.68995,0.0138 -1.22297,-1.02787 -1.21286,-1.39907 0.10425,-3.82477 0.901,-1.65938 8.01101,-12.55315 10.35285,-15.86244 1.6038,-2.26632 4.49404,-6.50653 4.97884,-7.30433 0.28647,-0.47143 1.39656,-2.21553 2.46681,-3.87575 1.07029,-1.66022 1.80088,-3.16101 1.62356,-3.33509 -0.4267,-0.4188 -7.48413,-0.19073 -13.16914,0.42556 -2.50098,0.27117 -5.37502,0.35658 -6.3868,0.18985 -2.11668,-0.34885 -4.14831,-2.20293 -3.87628,-3.53759 0.20806,-1.02071 0.78943,-1.03599 5.96849,-0.1565 3.41879,0.58053 12.8448,0.30572 18.05335,-0.52634 1.66759,-0.26641 3.28464,-0.87879 3.95642,-1.49825 0.9615,-0.88664 1.30918,-0.95681 2.26163,-0.45646 1.25451,0.65898 4.18235,0.35182 6.773,-0.71071 1.24714,-0.51145 2.1484,-1.5801 3.75295,-4.44975 1.16142,-2.07716 2.44681,-3.77662 2.85646,-3.77662 0.96615,0 0.94451,0.27489 -0.29661,3.76581 -0.69493,1.95471 -0.94456,3.55116 -0.75036,4.79848 0.25575,1.64232 0.14492,1.92376 -0.91294,2.31852 -1.35969,0.50744 -2.91708,2.82919 -9.23084,13.76119 -1.29012,2.23382 -1.53809,3.62407 -0.64645,3.62407 0.51045,0 6.95258,-5.72513 8.3706,-7.43896 0.76757,-0.9277 2.09823,-0.25001 3.17996,1.61955 0.68702,1.18731 0.59291,1.59799 -1.38942,6.06346 -1.16949,2.63443 -2.12634,5.55418 -2.12634,6.48837 0,1.47632 0.16346,1.6984 1.25013,1.6984 0.86117,0 1.48007,-0.43641 1.98909,-1.40264 1.23349,-2.34129 6.86891,-9.57677 9.85932,-12.65859 3.17297,-3.26995 4.85253,-4.2882 7.07319,-4.2882 3.81639,0 4.44474,8.2126 0.99245,12.97157 -2.48021,3.41889 -8.25261,7.61229 -14.30639,10.39302 -3.37978,1.55242 -4.53939,3.21457 -3.28097,4.70296 1.50993,1.7858 9.05381,0.0704 13.75556,-3.12784 1.6161,-1.09928 2.01985,-1.20154 2.40226,-0.6083 0.25284,0.39223 0.46317,0.96195 0.46742,1.26611 0.0471,3.35978 -12.53579,8.41327 -16.74995,6.7271 -1.37085,-0.54849 -3.10657,-3.06846 -3.42089,-4.9666 -0.21882,-1.3214 -0.71542,-2.00941 -1.96926,-2.72817 -2.09028,-1.1983 -2.68916,-0.73496 -4.08345,3.15929 -1.04769,2.9262 -2.16105,3.63915 -3.07246,1.96756 -0.79132,-1.45135 -0.28784,-3.29471 2.64134,-9.67116 3.65759,-7.96198 3.782,-8.25679 4.34274,-10.29092 0.46499,-1.6867 0.42075,-1.85973 -0.47567,-1.85973 -1.85128,0 -8.18115,7.01528 -11.34777,12.57656 -0.74613,1.31035 -1.6678,2.49964 -2.04817,2.64291 -0.38038,0.14328 -0.6916,0.65909 -0.6916,1.14625 0,0.48716 -0.34105,1.01419 -0.75789,1.17119 -0.41681,0.15702 -0.75899,0.68305 -0.76039,1.16891 -0.004,1.1884 -3.60378,5.7946 -4.68966,5.99987 -0.47602,0.0899 -0.8655,0.0358 -0.8655,-0.12077 z m 35.26095,-15.61489 c 2.75717,-1.3952 6.12797,-4.40851 7.76383,-6.94046 1.43251,-2.21714 1.87691,-4.67964 0.94638,-5.24411 -1.31053,-0.79503 -6.1707,3.46215 -10.25674,8.98419 -2.92902,3.95841 -2.34397,5.16908 1.54653,3.20038 z m 140.37984,14.58271 c -0.67905,-0.66654 -0.67541,-0.99706 0.0334,-3.03931 1.05504,-3.03926 12.16553,-24.41756 13.35441,-25.69593 0.76742,-0.82518 0.48489,-2.25634 -0.44602,-2.25931 -0.48628,0 -3.09167,0.47968 -5.78976,1.06933 -4.02068,0.87878 -5.04599,0.9578 -5.68401,0.43804 -2.08824,-1.70117 -0.73841,-2.35343 8.31599,-4.01837 3.19567,-0.58763 6.17993,-1.25967 6.63165,-1.49345 0.45174,-0.23374 1.57142,-1.60364 2.48818,-3.04417 3.02065,-4.74651 5.53231,-6.71916 5.53231,-4.3451 0,0.55093 -0.5846,1.91072 -1.29912,3.02172 -0.71453,1.11104 -1.1885,2.30304 -1.05325,2.64895 0.13846,0.3542 1.58889,0.77813 3.3201,0.97034 2.55592,0.28388 3.07423,0.49955 3.07423,1.27937 0,1.29086 -0.35664,1.42931 -4.61002,1.78965 -2.0496,0.17368 -4.21844,0.61671 -4.81967,0.98447 -0.60124,0.36784 -2.2242,2.74058 -3.60659,5.27275 -5.5811,10.22321 -10.6981,20.3219 -11.18865,22.08139 -0.60832,2.18178 -2.33019,5.08749 -3.01478,5.08749 -0.26213,0 -0.81945,-0.33653 -1.23849,-0.74786 z"
       id="path3837"
       inkscape:connector-curvature="0" />
    <g
       id="g3877"
       transform="matrix(0.90024056,0,0,0.90024056,20.757435,59.301813)">
      <rect
         y="544.4928"
         x="107.83379"
         height="2.5"
         width="403.13406"
         id="rect3854"
         style="fill:#464747;fill-opacity:1;stroke:none" />
      <rect
         style="fill:#464747;fill-opacity:1;stroke:none"
         id="rect3856"
         width="109.56264"
         height="2.5"
         x="531.46198"
         y="544.4928" />
    </g>
    <rect
       y="678.46313"
       x="117.83379"
       height="2.2506013"
       width="479.3183"
       id="rect3858"
       style="fill:#464747;fill-opacity:1;stroke:none" />
  </g>
</svg>
